<?xml version="1.0"?>
<svg id="_圖層_2" data-name="圖層 2" xmlns="http://www.w3.org/2000/svg" viewBox="0 0 165.69 70.62">
  <defs>
    
  </defs>
  <g>
    <path class="cls-1" d="M51.86,33.31v8.07c-12.84,6.63-26.93,11.16-41.83,13.12v-7.18c14.99-2.1,29.11-6.95,41.83-14.01Z"></path>
    <path class="cls-1" d="M51.86,18.45v8.36c-12.61,7.46-26.75,12.6-41.83,14.81v-7.2c15.22-2.39,29.39-7.94,41.83-15.98Z"></path>
    <rect class="cls-1" x="44.75" y="39.29" width="7.11" height="17.51"></rect>
  </g>
  <g>
    <path class="cls-1" d="M110.3,48.01l7.14-20.15h7.6l-10.45,28.25h-8.67l-10.4-28.25h7.65l7.14,20.15Z"></path>
    <path class="cls-1" d="M155.66,56.11h-6.9l.31-2.82c-.31-.26-2.13,1.58-2.66,1.89-8.33,4.92-18.42-2.03-19.54-10.92-2.16-17.02,19.76-23.55,27.16-9.59.39.73,1.63,3.72,1.63,4.33v17.1ZM140.53,33.9c-9.27,1.02-8.32,16.87,1.48,15.93,9.45-.91,7.95-16.97-1.48-15.93Z"></path>
    <path class="cls-1" d="M71.91,18.45v9.42h5.02v6.28h-5.02v12.08c0,2.17,3.45,3.51,5.34,3.3v6.59c-6.48.71-11.61-2.73-12.52-9.29v-25.97s7.18-2.4,7.18-2.4Z"></path>
    <rect class="cls-1" x="83.84" y="27.86" width="7.22" height="28.25"></rect>
    <path class="cls-1" d="M90.63,21.79c-3.48,3.28-9.38-.65-7.13-5.4,3.01-6.36,12.41.43,7.13,5.4Z"></path>
  </g>
</svg>